ffmpeg started on 2026-03-29 at 16:55:48
Report written to "D:\Convert\FFMetrics\reports\ssim_report-6.txt"
Log level: 32
Command line:
ffmpeg -hide_banner -nostdin -r 30000/1001 -i "F:\\\xc0\xed\xe8\xec\xe5\\LightFamily\\\xd1\xef\xe8\xf0\xe0\xeb\xfc\\[LightFamily][DUB] \xd1\xef\xe8\xf0\xe0\xeb\xfc 03 \xf1\xe5\xf0\xe8\xff_HEVC.mkv" -r 30000/1001 -i "F:\\\xc0\xed\xe8\xec\xe5\\LightFamily\\\xd1\xef\xe8\xf0\xe0\xeb\xfc\\[LightFamily][DUB] \xd1\xef\xe8\xf0\xe0\xeb\xfc 03 \xf1\xe5\xf0\xe8\xff.mp4" -lavfi "[0:v]settb=AVTB,setpts=PTS-STARTPTS,format=pix_fmts=yuv420p10le,fps=30000/1001,scale=1920:1080:flags=lanczos:param0=3:out_range=limited:out_color_matrix=bt709:out_chroma_loc=left,setsar=1/1,setdar=(1920/1080)*(1/1),colorspace=format=yuv420p10:range=tv:primaries=bt709:trc=bt709:space=bt709:fast=0[main];[1:v]settb=AVTB,setpts=PTS-STARTPTS,format=pix_fmts=yuv420p,fps=30000/1001,scale=1920:1080:flags=lanczos:param0=3:out_range=limited:out_color_matrix=bt709:out_chroma_loc=left,setsar=1/1,setdar=(1920/1080)*(1/1),colorspace=format=yuv420p:range=tv:primaries=bt709:trc=bt709:space=bt709:fast=0[ref];[main][ref]ssim=eof_action=endall:stats_file='D\\:/Convert/FFMetrics/logs/ssim_logfile-6.txt'" -f null -
Input #0, matroska,webm, from 'F:\Аниме\LightFamily\Спираль\[LightFamily][DUB] Спираль 03 серия_HEVC.mkv':
  Metadata:
    COMPATIBLE_BRANDS: mp42iso2avc1mp41
    MAJOR_BRAND     : mp42
    MINOR_VERSION   : 512
    ENCODER         : Lavf61.7.100
  Duration: 00:29:24.25, start: -0.021000, bitrate: 2541 kb/s
  Stream #0:0: Video: hevc (Main 10), yuv420p10le(tv, bt709, progressive), 1920x1080 [SAR 1:1 DAR 16:9], 29.97 fps, 29.97 tbr, 1k tbn (default)
      Metadata:
        HANDLER_NAME    : VideoHandler
        VENDOR_ID       : [0][0][0][0]
        ENCODER         : Lavc61.19.100 libx265
        BPS             : 2342096
        DURATION        : 00:29:24.195366666
        NUMBER_OF_FRAMES: 52873
        NUMBER_OF_BYTES : 516489313
        _STATISTICS_WRITING_APP: mkvpropedit v94.0 ('Initiate') 64-bit
        _STATISTICS_WRITING_DATE_UTC: 2026-03-28 17:05:10
        _STATISTICS_TAGS: BPS DURATION NUMBER_OF_FRAMES NUMBER_OF_BYTES
  Stream #0:1: Audio: aac (LC), 48000 Hz, stereo, fltp (default)
      Metadata:
        HANDLER_NAME    : Stereo
        VENDOR_ID       : [0][0][0][0]
        ENCODER         : Lavc61.19.100 aac
        BPS             : 195355
        DURATION        : 00:29:24.224000000
        NUMBER_OF_FRAMES: 82699
        NUMBER_OF_BYTES : 43081300
        _STATISTICS_WRITING_APP: mkvpropedit v94.0 ('Initiate') 64-bit
        _STATISTICS_WRITING_DATE_UTC: 2026-03-28 17:05:10
        _STATISTICS_TAGS: BPS DURATION NUMBER_OF_FRAMES NUMBER_OF_BYTES
Input #1, mov,mp4,m4a,3gp,3g2,mj2, from 'F:\Аниме\LightFamily\Спираль\[LightFamily][DUB] Спираль 03 серия.mp4':
  Metadata:
    major_brand     : mp42
    minor_version   : 512
    compatible_brands: mp42iso2avc1mp41
    creation_time   : 2025-10-03T23:57:52.000000Z
    encoder         : HandBrake 1.5.1 2022011000
  Duration: 00:29:24.22, start: 0.000000, bitrate: 8377 kb/s
  Stream #1:0[0x1](und): Video: h264 (High) (avc1 / 0x31637661), yuv420p(tv, bt709, progressive), 1920x1080 [SAR 1:1 DAR 16:9], 7999 kb/s, 29.97 fps, 29.97 tbr, 90k tbn (default)
      Metadata:
        creation_time   : 2025-10-03T23:57:52.000000Z
        handler_name    : VideoHandler
        vendor_id       : [0][0][0][0]
  Stream #1:1[0x2](und): Audio: aac (LC) (mp4a / 0x6134706D), 48000 Hz, stereo, fltp, 369 kb/s (default)
      Metadata:
        creation_time   : 2025-10-03T23:57:52.000000Z
        handler_name    : Stereo
        vendor_id       : [0][0][0][0]
Stream mapping:
  Stream #0:0 (hevc) -> settb:default
  Stream #1:0 (h264) -> settb:default
  ssim:default -> Stream #0:0 (wrapped_avframe)
  Stream #0:1 -> #0:1 (aac (native) -> pcm_s16le (native))
Output #0, null, to 'pipe:':
  Metadata:
    COMPATIBLE_BRANDS: mp42iso2avc1mp41
    MAJOR_BRAND     : mp42
    MINOR_VERSION   : 512
    encoder         : Lavf61.7.100
  Stream #0:0: Video: wrapped_avframe, yuv420p10le(tv, bt709, progressive), 1920x1080 [SAR 1:1 DAR 16:9], q=2-31, 200 kb/s, 29.97 fps, 29.97 tbn
      Metadata:
        encoder         : Lavc61.19.100 wrapped_avframe
  Stream #0:1: Audio: pcm_s16le, 48000 Hz, stereo, s16, 1536 kb/s (default)
      Metadata:
        HANDLER_NAME    : Stereo
        VENDOR_ID       : [0][0][0][0]
        _STATISTICS_TAGS: BPS DURATION NUMBER_OF_FRAMES NUMBER_OF_BYTES
        BPS             : 195355
        DURATION        : 00:29:24.224000000
        NUMBER_OF_FRAMES: 82699
        NUMBER_OF_BYTES : 43081300
        _STATISTICS_WRITING_APP: mkvpropedit v94.0 ('Initiate') 64-bit
        _STATISTICS_WRITING_DATE_UTC: 2026-03-28 17:05:10
        encoder         : Lavc61.19.100 pcm_s16le
frame=  147 fps=0.0 q=-0.0 size=N/A time=00:00:04.90 bitrate=N/A speed=9.44x    frame=  334 fps=324 q=-0.0 size=N/A time=00:00:11.14 bitrate=N/A speed=10.8x    frame=  522 fps=335 q=-0.0 size=N/A time=00:00:17.41 bitrate=N/A speed=11.2x    frame=  708 fps=342 q=-0.0 size=N/A time=00:00:23.62 bitrate=N/A speed=11.4x    frame=  891 fps=345 q=-0.0 size=N/A time=00:00:29.72 bitrate=N/A speed=11.5x    frame= 1076 fps=348 q=-0.0 size=N/A time=00:00:35.90 bitrate=N/A speed=11.6x    frame= 1254 fps=346 q=-0.0 size=N/A time=00:00:41.84 bitrate=N/A speed=11.6x    frame= 1421 fps=344 q=-0.0 size=N/A time=00:00:47.41 bitrate=N/A speed=11.5x    frame= 1582 fps=341 q=-0.0 size=N/A time=00:00:52.78 bitrate=N/A speed=11.4x    frame= 1761 fps=341 q=-0.0 size=N/A time=00:00:58.75 bitrate=N/A speed=11.4x    frame= 1953 fps=344 q=-0.0 size=N/A time=00:01:05.16 bitrate=N/A speed=11.5x    frame= 2138 fps=345 q=-0.0 size=N/A time=00:01:11.33 bitrate=N/A speed=11.5x    frame= 2322 fps=346 q=-0.0 size=N/A time=00:01:17.47 bitrate=N/A speed=11.5x    frame= 2486 fps=344 q=-0.0 size=N/A time=00:01:22.94 bitrate=N/A speed=11.5x    frame= 2673 fps=345 q=-0.0 size=N/A time=00:01:29.18 bitrate=N/A speed=11.5x    frame= 2862 fps=346 q=-0.0 size=N/A time=00:01:35.49 bitrate=N/A speed=11.6x    frame= 3049 fps=347 q=-0.0 size=N/A time=00:01:41.73 bitrate=N/A speed=11.6x    frame= 3238 fps=348 q=-0.0 size=N/A time=00:01:48.04 bitrate=N/A speed=11.6x    frame= 3424 fps=349 q=-0.0 size=N/A time=00:01:54.24 bitrate=N/A speed=11.6x    frame= 3620 fps=350 q=-0.0 size=N/A time=00:02:00.78 bitrate=N/A speed=11.7x    frame= 3799 fps=350 q=-0.0 size=N/A time=00:02:06.75 bitrate=N/A speed=11.7x    frame= 3979 fps=350 q=-0.0 size=N/A time=00:02:12.76 bitrate=N/A speed=11.7x    frame= 4172 fps=351 q=-0.0 size=N/A time=00:02:19.20 bitrate=N/A speed=11.7x    frame= 4367 fps=352 q=-0.0 size=N/A time=00:02:25.71 bitrate=N/A speed=11.8x    frame= 4561 fps=353 q=-0.0 size=N/A time=00:02:32.18 bitrate=N/A speed=11.8x    frame= 4759 fps=354 q=-0.0 size=N/A time=00:02:38.79 bitrate=N/A speed=11.8x    frame= 4922 fps=353 q=-0.0 size=N/A time=00:02:44.23 bitrate=N/A speed=11.8x    frame= 5097 fps=352 q=-0.0 size=N/A time=00:02:50.06 bitrate=N/A speed=11.8x    frame= 5293 fps=353 q=-0.0 size=N/A time=00:02:56.60 bitrate=N/A speed=11.8x    frame= 5480 fps=353 q=-0.0 size=N/A time=00:03:02.84 bitrate=N/A speed=11.8x    frame= 5667 fps=354 q=-0.0 size=N/A time=00:03:09.08 bitrate=N/A speed=11.8x    frame= 5843 fps=353 q=-0.0 size=N/A time=00:03:14.96 bitrate=N/A speed=11.8x    frame= 5997 fps=352 q=-0.0 size=N/A time=00:03:20.09 bitrate=N/A speed=11.7x    frame= 6175 fps=351 q=-0.0 size=N/A time=00:03:26.03 bitrate=N/A speed=11.7x    frame= 6360 fps=352 q=-0.0 size=N/A time=00:03:32.21 bitrate=N/A speed=11.7x    frame= 6555 fps=352 q=-0.0 size=N/A time=00:03:38.71 bitrate=N/A speed=11.8x    frame= 6733 fps=352 q=-0.0 size=N/A time=00:03:44.65 bitrate=N/A speed=11.8x    frame= 6912 fps=352 q=-0.0 size=N/A time=00:03:50.63 bitrate=N/A speed=11.8x    frame= 7088 fps=352 q=-0.0 size=N/A time=00:03:56.50 bitrate=N/A speed=11.7x    frame= 7280 fps=352 q=-0.0 size=N/A time=00:04:02.90 bitrate=N/A speed=11.8x    frame= 7472 fps=353 q=-0.0 size=N/A time=00:04:09.31 bitrate=N/A speed=11.8x    frame= 7659 fps=353 q=-0.0 size=N/A time=00:04:15.55 bitrate=N/A speed=11.8x    frame= 7843 fps=353 q=-0.0 size=N/A time=00:04:21.69 bitrate=N/A speed=11.8x    frame= 8036 fps=354 q=-0.0 size=N/A time=00:04:28.13 bitrate=N/A speed=11.8x    frame= 8231 fps=354 q=-0.0 size=N/A time=00:04:34.64 bitrate=N/A speed=11.8x    frame= 8423 fps=355 q=-0.0 size=N/A time=00:04:41.04 bitrate=N/A speed=11.8x    frame= 8619 fps=355 q=-0.0 size=N/A time=00:04:47.58 bitrate=N/A speed=11.9x    frame= 8822 fps=356 q=-0.0 size=N/A time=00:04:54.36 bitrate=N/A speed=11.9x    frame= 8998 fps=356 q=-0.0 size=N/A time=00:05:00.23 bitrate=N/A speed=11.9x    frame= 9198 fps=356 q=-0.0 size=N/A time=00:05:06.90 bitrate=N/A speed=11.9x    frame= 9372 fps=356 q=-0.0 size=N/A time=00:05:12.71 bitrate=N/A speed=11.9x    frame= 9545 fps=355 q=-0.0 size=N/A time=00:05:18.48 bitrate=N/A speed=11.9x    frame= 9711 fps=355 q=-0.0 size=N/A time=00:05:24.02 bitrate=N/A speed=11.8x    frame= 9887 fps=355 q=-0.0 size=N/A time=00:05:29.89 bitrate=N/A speed=11.8x    frame=10082 fps=355 q=-0.0 size=N/A time=00:05:36.40 bitrate=N/A speed=11.8x    frame=10277 fps=355 q=-0.0 size=N/A time=00:05:42.90 bitrate=N/A speed=11.9x    frame=10469 fps=356 q=-0.0 size=N/A time=00:05:49.31 bitrate=N/A speed=11.9x    frame=10661 fps=356 q=-0.0 size=N/A time=00:05:55.72 bitrate=N/A speed=11.9x    frame=10853 fps=356 q=-0.0 size=N/A time=00:06:02.12 bitrate=N/A speed=11.9x    frame=11032 fps=356 q=-0.0 size=N/A time=00:06:08.10 bitrate=N/A speed=11.9x    frame=11210 fps=356 q=-0.0 size=N/A time=00:06:14.04 bitrate=N/A speed=11.9x    frame=11365 fps=355 q=-0.0 size=N/A time=00:06:19.21 bitrate=N/A speed=11.9x    frame=11551 fps=355 q=-0.0 size=N/A time=00:06:25.41 bitrate=N/A speed=11.9x    frame=11729 fps=355 q=-0.0 size=N/A time=00:06:31.35 bitrate=N/A speed=11.8x    frame=11914 fps=355 q=-0.0 size=N/A time=00:06:37.53 bitrate=N/A speed=11.8x    frame=12083 fps=354 q=-0.0 size=N/A time=00:06:43.16 bitrate=N/A speed=11.8x    frame=12247 fps=354 q=-0.0 size=N/A time=00:06:48.64 bitrate=N/A speed=11.8x    frame=12438 fps=354 q=-0.0 size=N/A time=00:06:55.01 bitrate=N/A speed=11.8x    frame=12625 fps=354 q=-0.0 size=N/A time=00:07:01.25 bitrate=N/A speed=11.8x    frame=12822 fps=355 q=-0.0 size=N/A time=00:07:07.82 bitrate=N/A speed=11.8x    frame=13009 fps=355 q=-0.0 size=N/A time=00:07:14.06 bitrate=N/A speed=11.8x    frame=13197 fps=355 q=-0.0 size=N/A time=00:07:20.33 bitrate=N/A speed=11.8x    frame=13385 fps=355 q=-0.0 size=N/A time=00:07:26.61 bitrate=N/A speed=11.8x    frame=13563 fps=355 q=-0.0 size=N/A time=00:07:32.55 bitrate=N/A speed=11.8x    frame=13731 fps=354 q=-0.0 size=N/A time=00:07:38.15 bitrate=N/A speed=11.8x    frame=13907 fps=354 q=-0.0 size=N/A time=00:07:44.03 bitrate=N/A speed=11.8x    frame=14091 fps=354 q=-0.0 size=N/A time=00:07:50.16 bitrate=N/A speed=11.8x    frame=14245 fps=354 q=-0.0 size=N/A time=00:07:55.30 bitrate=N/A speed=11.8x    frame=14417 fps=353 q=-0.0 size=N/A time=00:08:01.04 bitrate=N/A speed=11.8x    frame=14583 fps=353 q=-0.0 size=N/A time=00:08:06.58 bitrate=N/A speed=11.8x    frame=14775 fps=353 q=-0.0 size=N/A time=00:08:12.99 bitrate=N/A speed=11.8x    frame=14960 fps=353 q=-0.0 size=N/A time=00:08:19.16 bitrate=N/A speed=11.8x    frame=15132 fps=353 q=-0.0 size=N/A time=00:08:24.90 bitrate=N/A speed=11.8x    frame=15301 fps=353 q=-0.0 size=N/A time=00:08:30.54 bitrate=N/A speed=11.8x    frame=15456 fps=352 q=-0.0 size=N/A time=00:08:35.71 bitrate=N/A speed=11.7x    frame=15621 fps=352 q=-0.0 size=N/A time=00:08:41.22 bitrate=N/A speed=11.7x    frame=15771 fps=351 q=-0.0 size=N/A time=00:08:46.22 bitrate=N/A speed=11.7x    frame=15951 fps=351 q=-0.0 size=N/A time=00:08:52.23 bitrate=N/A speed=11.7x    frame=16126 fps=351 q=-0.0 size=N/A time=00:08:58.07 bitrate=N/A speed=11.7x    frame=16318 fps=351 q=-0.0 size=N/A time=00:09:04.47 bitrate=N/A speed=11.7x    frame=16503 fps=351 q=-0.0 size=N/A time=00:09:10.65 bitrate=N/A speed=11.7x    frame=16694 fps=351 q=-0.0 size=N/A time=00:09:17.02 bitrate=N/A speed=11.7x    frame=16883 fps=351 q=-0.0 size=N/A time=00:09:23.32 bitrate=N/A speed=11.7x    frame=17061 fps=351 q=-0.0 size=N/A time=00:09:29.26 bitrate=N/A speed=11.7x    frame=17247 fps=351 q=-0.0 size=N/A time=00:09:35.47 bitrate=N/A speed=11.7x    frame=17434 fps=352 q=-0.0 size=N/A time=00:09:41.71 bitrate=N/A speed=11.7x    frame=17619 fps=352 q=-0.0 size=N/A time=00:09:47.88 bitrate=N/A speed=11.7x    frame=17807 fps=352 q=-0.0 size=N/A time=00:09:54.16 bitrate=N/A speed=11.7x    frame=18005 fps=352 q=-0.0 size=N/A time=00:10:00.76 bitrate=N/A speed=11.7x    frame=18193 fps=352 q=-0.0 size=N/A time=00:10:07.03 bitrate=N/A speed=11.7x    frame=18378 fps=352 q=-0.0 size=N/A time=00:10:13.21 bitrate=N/A speed=11.8x    frame=18558 fps=352 q=-0.0 size=N/A time=00:10:19.21 bitrate=N/A speed=11.8x    frame=18748 fps=352 q=-0.0 size=N/A time=00:10:25.55 bitrate=N/A speed=11.8x    frame=18893 fps=352 q=-0.0 size=N/A time=00:10:30.39 bitrate=N/A speed=11.7x    frame=19065 fps=352 q=-0.0 size=N/A time=00:10:36.13 bitrate=N/A speed=11.7x    frame=19231 fps=351 q=-0.0 size=N/A time=00:10:41.67 bitrate=N/A speed=11.7x    frame=19406 fps=351 q=-0.0 size=N/A time=00:10:47.51 bitrate=N/A speed=11.7x    frame=19584 fps=351 q=-0.0 size=N/A time=00:10:53.45 bitrate=N/A speed=11.7x    frame=19759 fps=351 q=-0.0 size=N/A time=00:10:59.29 bitrate=N/A speed=11.7x    frame=19938 fps=351 q=-0.0 size=N/A time=00:11:05.26 bitrate=N/A speed=11.7x    frame=20126 fps=351 q=-0.0 size=N/A time=00:11:11.53 bitrate=N/A speed=11.7x    frame=20307 fps=351 q=-0.0 size=N/A time=00:11:17.57 bitrate=N/A speed=11.7x    frame=20484 fps=351 q=-0.0 size=N/A time=00:11:23.48 bitrate=N/A speed=11.7x    frame=20674 fps=351 q=-0.0 size=N/A time=00:11:29.82 bitrate=N/A speed=11.7x    frame=20847 fps=351 q=-0.0 size=N/A time=00:11:35.59 bitrate=N/A speed=11.7x    frame=21014 fps=351 q=-0.0 size=N/A time=00:11:41.16 bitrate=N/A speed=11.7x    frame=21187 fps=351 q=-0.0 size=N/A time=00:11:46.93 bitrate=N/A speed=11.7x    frame=21358 fps=351 q=-0.0 size=N/A time=00:11:52.64 bitrate=N/A speed=11.7x    frame=21536 fps=350 q=-0.0 size=N/A time=00:11:58.58 bitrate=N/A speed=11.7x    frame=21701 fps=350 q=-0.0 size=N/A time=00:12:04.09 bitrate=N/A speed=11.7x    frame=21870 fps=350 q=-0.0 size=N/A time=00:12:09.72 bitrate=N/A speed=11.7x    frame=22049 fps=350 q=-0.0 size=N/A time=00:12:15.70 bitrate=N/A speed=11.7x    frame=22223 fps=350 q=-0.0 size=N/A time=00:12:21.50 bitrate=N/A speed=11.7x    frame=22402 fps=350 q=-0.0 size=N/A time=00:12:27.48 bitrate=N/A speed=11.7x    frame=22573 fps=350 q=-0.0 size=N/A time=00:12:33.18 bitrate=N/A speed=11.7x    frame=22744 fps=349 q=-0.0 size=N/A time=00:12:38.89 bitrate=N/A speed=11.7x    frame=22922 fps=349 q=-0.0 size=N/A time=00:12:44.83 bitrate=N/A speed=11.7x    frame=23106 fps=349 q=-0.0 size=N/A time=00:12:50.97 bitrate=N/A speed=11.7x    frame=23287 fps=350 q=-0.0 size=N/A time=00:12:57.00 bitrate=N/A speed=11.7x    frame=23446 fps=349 q=-0.0 size=N/A time=00:13:02.31 bitrate=N/A speed=11.7x    frame=23622 fps=349 q=-0.0 size=N/A time=00:13:08.18 bitrate=N/A speed=11.6x    frame=23788 fps=349 q=-0.0 size=N/A time=00:13:13.72 bitrate=N/A speed=11.6x    frame=23961 fps=349 q=-0.0 size=N/A time=00:13:19.49 bitrate=N/A speed=11.6x    frame=24146 fps=349 q=-0.0 size=N/A time=00:13:25.67 bitrate=N/A speed=11.6x    frame=24278 fps=348 q=-0.0 size=N/A time=00:13:30.07 bitrate=N/A speed=11.6x    frame=24467 fps=348 q=-0.0 size=N/A time=00:13:36.38 bitrate=N/A speed=11.6x    frame=24649 fps=348 q=-0.0 size=N/A time=00:13:42.45 bitrate=N/A speed=11.6x    frame=24809 fps=348 q=-0.0 size=N/A time=00:13:47.79 bitrate=N/A speed=11.6x    frame=24983 fps=348 q=-0.0 size=N/A time=00:13:53.59 bitrate=N/A speed=11.6x    frame=25176 fps=348 q=-0.0 size=N/A time=00:14:00.03 bitrate=N/A speed=11.6x    frame=25355 fps=348 q=-0.0 size=N/A time=00:14:06.01 bitrate=N/A speed=11.6x    frame=25536 fps=348 q=-0.0 size=N/A time=00:14:12.05 bitrate=N/A speed=11.6x    frame=25696 fps=348 q=-0.0 size=N/A time=00:14:17.38 bitrate=N/A speed=11.6x    frame=25876 fps=348 q=-0.0 size=N/A time=00:14:23.39 bitrate=N/A speed=11.6x    frame=26052 fps=348 q=-0.0 size=N/A time=00:14:29.26 bitrate=N/A speed=11.6x    frame=26216 fps=348 q=-0.0 size=N/A time=00:14:34.74 bitrate=N/A speed=11.6x    frame=26393 fps=348 q=-0.0 size=N/A time=00:14:40.64 bitrate=N/A speed=11.6x    frame=26561 fps=347 q=-0.0 size=N/A time=00:14:46.25 bitrate=N/A speed=11.6x    frame=26720 fps=347 q=-0.0 size=N/A time=00:14:51.55 bitrate=N/A speed=11.6x    frame=26869 fps=347 q=-0.0 size=N/A time=00:14:56.52 bitrate=N/A speed=11.6x    frame=27033 fps=347 q=-0.0 size=N/A time=00:15:02.00 bitrate=N/A speed=11.6x    frame=27215 fps=347 q=-0.0 size=N/A time=00:15:08.07 bitrate=N/A speed=11.6x    frame=27391 fps=347 q=-0.0 size=N/A time=00:15:13.94 bitrate=N/A speed=11.6x    frame=27561 fps=347 q=-0.0 size=N/A time=00:15:19.61 bitrate=N/A speed=11.6x    frame=27716 fps=346 q=-0.0 size=N/A time=00:15:24.79 bitrate=N/A speed=11.6x    frame=27844 fps=346 q=-0.0 size=N/A time=00:15:29.06 bitrate=N/A speed=11.5x    frame=27997 fps=345 q=-0.0 size=N/A time=00:15:34.16 bitrate=N/A speed=11.5x    frame=28180 fps=345 q=-0.0 size=N/A time=00:15:40.27 bitrate=N/A speed=11.5x    frame=28367 fps=345 q=-0.0 size=N/A time=00:15:46.51 bitrate=N/A speed=11.5x    frame=28551 fps=346 q=-0.0 size=N/A time=00:15:52.65 bitrate=N/A speed=11.5x    frame=28719 fps=345 q=-0.0 size=N/A time=00:15:58.25 bitrate=N/A speed=11.5x    frame=28900 fps=345 q=-0.0 size=N/A time=00:16:04.29 bitrate=N/A speed=11.5x    frame=29084 fps=346 q=-0.0 size=N/A time=00:16:10.43 bitrate=N/A speed=11.5x    frame=29270 fps=346 q=-0.0 size=N/A time=00:16:16.64 bitrate=N/A speed=11.5x    frame=29460 fps=346 q=-0.0 size=N/A time=00:16:22.98 bitrate=N/A speed=11.5x    frame=29631 fps=346 q=-0.0 size=N/A time=00:16:28.68 bitrate=N/A speed=11.5x    frame=29817 fps=346 q=-0.0 size=N/A time=00:16:34.89 bitrate=N/A speed=11.5x    frame=29978 fps=346 q=-0.0 size=N/A time=00:16:40.26 bitrate=N/A speed=11.5x    frame=30167 fps=346 q=-0.0 size=N/A time=00:16:46.57 bitrate=N/A speed=11.5x    frame=30356 fps=346 q=-0.0 size=N/A time=00:16:52.87 bitrate=N/A speed=11.5x    frame=30523 fps=346 q=-0.0 size=N/A time=00:16:58.45 bitrate=N/A speed=11.5x    frame=30677 fps=345 q=-0.0 size=N/A time=00:17:03.58 bitrate=N/A speed=11.5x    frame=30856 fps=345 q=-0.0 size=N/A time=00:17:09.56 bitrate=N/A speed=11.5x    frame=31048 fps=345 q=-0.0 size=N/A time=00:17:15.96 bitrate=N/A speed=11.5x    frame=31232 fps=346 q=-0.0 size=N/A time=00:17:22.10 bitrate=N/A speed=11.5x    frame=31407 fps=346 q=-0.0 size=N/A time=00:17:27.94 bitrate=N/A speed=11.5x    frame=31588 fps=346 q=-0.0 size=N/A time=00:17:33.98 bitrate=N/A speed=11.5x    frame=31765 fps=346 q=-0.0 size=N/A time=00:17:39.89 bitrate=N/A speed=11.5x    frame=31925 fps=345 q=-0.0 size=N/A time=00:17:45.23 bitrate=N/A speed=11.5x    frame=32091 fps=345 q=-0.0 size=N/A time=00:17:50.76 bitrate=N/A speed=11.5x    frame=32265 fps=345 q=-0.0 size=N/A time=00:17:56.57 bitrate=N/A speed=11.5x    frame=32457 fps=345 q=-0.0 size=N/A time=00:18:02.98 bitrate=N/A speed=11.5x    frame=32639 fps=345 q=-0.0 size=N/A time=00:18:09.05 bitrate=N/A speed=11.5x    frame=32816 fps=345 q=-0.0 size=N/A time=00:18:14.96 bitrate=N/A speed=11.5x    frame=32986 fps=345 q=-0.0 size=N/A time=00:18:20.63 bitrate=N/A speed=11.5x    frame=33155 fps=345 q=-0.0 size=N/A time=00:18:26.27 bitrate=N/A speed=11.5x    frame=33318 fps=345 q=-0.0 size=N/A time=00:18:31.71 bitrate=N/A speed=11.5x    frame=33506 fps=345 q=-0.0 size=N/A time=00:18:37.98 bitrate=N/A speed=11.5x    frame=33695 fps=345 q=-0.0 size=N/A time=00:18:44.28 bitrate=N/A speed=11.5x    frame=33861 fps=345 q=-0.0 size=N/A time=00:18:49.82 bitrate=N/A speed=11.5x    frame=34029 fps=345 q=-0.0 size=N/A time=00:18:55.43 bitrate=N/A speed=11.5x    frame=34202 fps=345 q=-0.0 size=N/A time=00:19:01.20 bitrate=N/A speed=11.5x    frame=34391 fps=345 q=-0.0 size=N/A time=00:19:07.51 bitrate=N/A speed=11.5x    frame=34573 fps=345 q=-0.0 size=N/A time=00:19:13.58 bitrate=N/A speed=11.5x    frame=34767 fps=345 q=-0.0 size=N/A time=00:19:20.05 bitrate=N/A speed=11.5x    frame=34949 fps=345 q=-0.0 size=N/A time=00:19:26.13 bitrate=N/A speed=11.5x    frame=35134 fps=345 q=-0.0 size=N/A time=00:19:32.30 bitrate=N/A speed=11.5x    frame=35320 fps=345 q=-0.0 size=N/A time=00:19:38.51 bitrate=N/A speed=11.5x    frame=35489 fps=345 q=-0.0 size=N/A time=00:19:44.14 bitrate=N/A speed=11.5x    frame=35656 fps=345 q=-0.0 size=N/A time=00:19:49.72 bitrate=N/A speed=11.5x    frame=35829 fps=345 q=-0.0 size=N/A time=00:19:55.49 bitrate=N/A speed=11.5x    frame=36004 fps=345 q=-0.0 size=N/A time=00:20:01.33 bitrate=N/A speed=11.5x    frame=36169 fps=345 q=-0.0 size=N/A time=00:20:06.83 bitrate=N/A speed=11.5x    frame=36339 fps=345 q=-0.0 size=N/A time=00:20:12.51 bitrate=N/A speed=11.5x    frame=36497 fps=345 q=-0.0 size=N/A time=00:20:17.78 bitrate=N/A speed=11.5x    frame=36658 fps=344 q=-0.0 size=N/A time=00:20:23.15 bitrate=N/A speed=11.5x    frame=36817 fps=344 q=-0.0 size=N/A time=00:20:28.46 bitrate=N/A speed=11.5x    frame=36986 fps=344 q=-0.0 size=N/A time=00:20:34.09 bitrate=N/A speed=11.5x    frame=37164 fps=344 q=-0.0 size=N/A time=00:20:40.03 bitrate=N/A speed=11.5x    frame=37335 fps=344 q=-0.0 size=N/A time=00:20:45.74 bitrate=N/A speed=11.5x    frame=37500 fps=344 q=-0.0 size=N/A time=00:20:51.25 bitrate=N/A speed=11.5x    frame=37656 fps=344 q=-0.0 size=N/A time=00:20:56.45 bitrate=N/A speed=11.5x    frame=37821 fps=344 q=-0.0 size=N/A time=00:21:01.96 bitrate=N/A speed=11.5x    frame=37983 fps=344 q=-0.0 size=N/A time=00:21:07.36 bitrate=N/A speed=11.5x    frame=38147 fps=344 q=-0.0 size=N/A time=00:21:12.83 bitrate=N/A speed=11.5x    frame=38313 fps=343 q=-0.0 size=N/A time=00:21:18.37 bitrate=N/A speed=11.5x    frame=38482 fps=343 q=-0.0 size=N/A time=00:21:24.01 bitrate=N/A speed=11.5x    frame=38644 fps=343 q=-0.0 size=N/A time=00:21:29.42 bitrate=N/A speed=11.5x    frame=38817 fps=343 q=-0.0 size=N/A time=00:21:35.19 bitrate=N/A speed=11.4x    frame=38991 fps=343 q=-0.0 size=N/A time=00:21:40.99 bitrate=N/A speed=11.4x    frame=39176 fps=343 q=-0.0 size=N/A time=00:21:47.17 bitrate=N/A speed=11.5x    frame=39351 fps=343 q=-0.0 size=N/A time=00:21:53.01 bitrate=N/A speed=11.5x    frame=39520 fps=343 q=-0.0 size=N/A time=00:21:58.65 bitrate=N/A speed=11.4x    frame=39683 fps=343 q=-0.0 size=N/A time=00:22:04.08 bitrate=N/A speed=11.4x    frame=39845 fps=343 q=-0.0 size=N/A time=00:22:09.49 bitrate=N/A speed=11.4x    frame=40007 fps=343 q=-0.0 size=N/A time=00:22:14.90 bitrate=N/A speed=11.4x    frame=40190 fps=343 q=-0.0 size=N/A time=00:22:21.00 bitrate=N/A speed=11.4x    frame=40383 fps=343 q=-0.0 size=N/A time=00:22:27.44 bitrate=N/A speed=11.4x    frame=40570 fps=343 q=-0.0 size=N/A time=00:22:33.68 bitrate=N/A speed=11.4x    frame=40750 fps=343 q=-0.0 size=N/A time=00:22:39.69 bitrate=N/A speed=11.4x    frame=40934 fps=343 q=-0.0 size=N/A time=00:22:45.83 bitrate=N/A speed=11.4x    frame=41117 fps=343 q=-0.0 size=N/A time=00:22:51.93 bitrate=N/A speed=11.4x    frame=41298 fps=343 q=-0.0 size=N/A time=00:22:57.97 bitrate=N/A speed=11.5x    frame=41485 fps=343 q=-0.0 size=N/A time=00:23:04.21 bitrate=N/A speed=11.5x    frame=41680 fps=343 q=-0.0 size=N/A time=00:23:10.72 bitrate=N/A speed=11.5x    frame=41867 fps=343 q=-0.0 size=N/A time=00:23:16.96 bitrate=N/A speed=11.5x    frame=42056 fps=344 q=-0.0 size=N/A time=00:23:23.26 bitrate=N/A speed=11.5x    frame=42248 fps=344 q=-0.0 size=N/A time=00:23:29.67 bitrate=N/A speed=11.5x    frame=42435 fps=344 q=-0.0 size=N/A time=00:23:35.91 bitrate=N/A speed=11.5x    frame=42622 fps=344 q=-0.0 size=N/A time=00:23:42.15 bitrate=N/A speed=11.5x    frame=42806 fps=344 q=-0.0 size=N/A time=00:23:48.29 bitrate=N/A speed=11.5x    frame=43000 fps=344 q=-0.0 size=N/A time=00:23:54.76 bitrate=N/A speed=11.5x    frame=43177 fps=344 q=-0.0 size=N/A time=00:24:00.67 bitrate=N/A speed=11.5x    frame=43360 fps=344 q=-0.0 size=N/A time=00:24:06.77 bitrate=N/A speed=11.5x    frame=43539 fps=344 q=-0.0 size=N/A time=00:24:12.75 bitrate=N/A speed=11.5x    frame=43731 fps=344 q=-0.0 size=N/A time=00:24:19.15 bitrate=N/A speed=11.5x    frame=43920 fps=344 q=-0.0 size=N/A time=00:24:25.46 bitrate=N/A speed=11.5x    frame=44103 fps=344 q=-0.0 size=N/A time=00:24:31.57 bitrate=N/A speed=11.5x    frame=44279 fps=344 q=-0.0 size=N/A time=00:24:37.44 bitrate=N/A speed=11.5x    frame=44465 fps=344 q=-0.0 size=N/A time=00:24:43.64 bitrate=N/A speed=11.5x    frame=44655 fps=344 q=-0.0 size=N/A time=00:24:49.98 bitrate=N/A speed=11.5x    frame=44836 fps=344 q=-0.0 size=N/A time=00:24:56.02 bitrate=N/A speed=11.5x    frame=45013 fps=344 q=-0.0 size=N/A time=00:25:01.93 bitrate=N/A speed=11.5x    frame=45195 fps=345 q=-0.0 size=N/A time=00:25:08.00 bitrate=N/A speed=11.5x    frame=45373 fps=344 q=-0.0 size=N/A time=00:25:13.94 bitrate=N/A speed=11.5x    frame=45550 fps=344 q=-0.0 size=N/A time=00:25:19.85 bitrate=N/A speed=11.5x    frame=45739 fps=345 q=-0.0 size=N/A time=00:25:26.15 bitrate=N/A speed=11.5x    frame=45905 fps=345 q=-0.0 size=N/A time=00:25:31.69 bitrate=N/A speed=11.5x    frame=46088 fps=345 q=-0.0 size=N/A time=00:25:37.80 bitrate=N/A speed=11.5x    frame=46275 fps=345 q=-0.0 size=N/A time=00:25:44.04 bitrate=N/A speed=11.5x    frame=46467 fps=345 q=-0.0 size=N/A time=00:25:50.44 bitrate=N/A speed=11.5x    frame=46657 fps=345 q=-0.0 size=N/A time=00:25:56.78 bitrate=N/A speed=11.5x    frame=46836 fps=345 q=-0.0 size=N/A time=00:26:02.76 bitrate=N/A speed=11.5x    frame=47011 fps=345 q=-0.0 size=N/A time=00:26:08.60 bitrate=N/A speed=11.5x    frame=47190 fps=345 q=-0.0 size=N/A time=00:26:14.57 bitrate=N/A speed=11.5x    frame=47357 fps=345 q=-0.0 size=N/A time=00:26:20.14 bitrate=N/A speed=11.5x    frame=47535 fps=345 q=-0.0 size=N/A time=00:26:26.08 bitrate=N/A speed=11.5x    frame=47702 fps=345 q=-0.0 size=N/A time=00:26:31.65 bitrate=N/A speed=11.5x    frame=47863 fps=345 q=-0.0 size=N/A time=00:26:37.02 bitrate=N/A speed=11.5x    frame=48027 fps=344 q=-0.0 size=N/A time=00:26:42.50 bitrate=N/A speed=11.5x    frame=48199 fps=344 q=-0.0 size=N/A time=00:26:48.23 bitrate=N/A speed=11.5x    frame=48351 fps=344 q=-0.0 size=N/A time=00:26:53.31 bitrate=N/A speed=11.5x    frame=48519 fps=344 q=-0.0 size=N/A time=00:26:58.91 bitrate=N/A speed=11.5x    frame=48695 fps=344 q=-0.0 size=N/A time=00:27:04.78 bitrate=N/A speed=11.5x    frame=48869 fps=344 q=-0.0 size=N/A time=00:27:10.59 bitrate=N/A speed=11.5x    frame=49033 fps=344 q=-0.0 size=N/A time=00:27:16.06 bitrate=N/A speed=11.5x    frame=49207 fps=344 q=-0.0 size=N/A time=00:27:21.87 bitrate=N/A speed=11.5x    frame=49385 fps=344 q=-0.0 size=N/A time=00:27:27.81 bitrate=N/A speed=11.5x    frame=49562 fps=344 q=-0.0 size=N/A time=00:27:33.71 bitrate=N/A speed=11.5x    frame=49731 fps=344 q=-0.0 size=N/A time=00:27:39.35 bitrate=N/A speed=11.5x    frame=49903 fps=344 q=-0.0 size=N/A time=00:27:45.09 bitrate=N/A speed=11.5x    frame=50080 fps=344 q=-0.0 size=N/A time=00:27:51.00 bitrate=N/A speed=11.5x    frame=50243 fps=344 q=-0.0 size=N/A time=00:27:56.44 bitrate=N/A speed=11.5x    frame=50401 fps=344 q=-0.0 size=N/A time=00:28:01.71 bitrate=N/A speed=11.5x    frame=50581 fps=344 q=-0.0 size=N/A time=00:28:07.71 bitrate=N/A speed=11.5x    frame=50732 fps=343 q=-0.0 size=N/A time=00:28:12.75 bitrate=N/A speed=11.5x    frame=50886 fps=343 q=-0.0 size=N/A time=00:28:17.89 bitrate=N/A speed=11.5x    frame=51055 fps=343 q=-0.0 size=N/A time=00:28:23.53 bitrate=N/A speed=11.5x    frame=51243 fps=343 q=-0.0 size=N/A time=00:28:29.80 bitrate=N/A speed=11.5x    frame=51433 fps=343 q=-0.0 size=N/A time=00:28:36.14 bitrate=N/A speed=11.5x    frame=51608 fps=343 q=-0.0 size=N/A time=00:28:41.98 bitrate=N/A speed=11.5x    frame=51796 fps=343 q=-0.0 size=N/A time=00:28:48.25 bitrate=N/A speed=11.5x    frame=51982 fps=344 q=-0.0 size=N/A time=00:28:54.46 bitrate=N/A speed=11.5x    frame=52166 fps=344 q=-0.0 size=N/A time=00:29:00.60 bitrate=N/A speed=11.5x    frame=52346 fps=344 q=-0.0 size=N/A time=00:29:06.61 bitrate=N/A speed=11.5x    frame=52508 fps=343 q=-0.0 size=N/A time=00:29:12.01 bitrate=N/A speed=11.5x    frame=52666 fps=343 q=-0.0 size=N/A time=00:29:17.28 bitrate=N/A speed=11.5x    frame=52855 fps=343 q=-0.0 size=N/A time=00:29:23.59 bitrate=N/A speed=11.5x    [Parsed_ssim_16 @ 000001f33871e140] SSIM Y:0.988025 (19.217368) U:0.997084 (25.352593) V:0.996934 (25.134588) All:0.991020 (20.467228)
[out#0/null @ 000001f33111eec0] video:22719KiB audio:330796KiB subtitle:0KiB other streams:0KiB global headers:0KiB muxing overhead: unknown
frame=52873 fps=343 q=-0.0 Lsize=N/A time=00:29:24.19 bitrate=N/A speed=11.5x    
